<?xml version="1.0" encoding="UTF-8" standalone="no"?>
<svg
   xmlns:dc="http://purl.org/dc/elements/1.1/"
   xmlns:cc="http://creativecommons.org/ns#"
   xmlns:rdf="http://www.w3.org/1999/02/22-rdf-syntax-ns#"
   xmlns:svg="http://www.w3.org/2000/svg"
   xmlns="http://www.w3.org/2000/svg"
   xmlns:xlink="http://www.w3.org/1999/xlink"
   width="190.297mm"
   height="54.21814mm"
   viewBox="0 0 190.297 54.21814"
   version="1.1"
   id="svg8">
  <defs
     id="defs2" />
  <metadata
     id="metadata5">
    <rdf:RDF>
      <cc:Work
         rdf:about="">
        <dc:format>image/svg+xml</dc:format>
        <dc:type
           rdf:resource="http://purl.org/dc/dcmitype/StillImage" />
        <dc:title></dc:title>
      </cc:Work>
    </rdf:RDF>
  </metadata>
  <g
     transform="translate(-3.1131187,-3.9921436)"
     style="display:inline"
     id="g4638">
    <path
       style="display:inline;opacity:1;fill:#ff29ac;fill-opacity:1;fill-rule:evenodd;stroke:none;stroke-width:10;stroke-miterlimit:4;stroke-dasharray:none;stroke-dashoffset:0;stroke-opacity:1;paint-order:fill markers stroke"
       d="M 30.00902,4.9971347 A 25.513393,25.513393 0 0 0 14.616162,10.591115 c 0.133368,0.18103 0.263304,0.36156 0.393258,0.54208 A 25.513393,25.513393 0 0 1 30.693217,5.0178047 25.513393,25.513393 0 0 0 30.00902,4.9971047 Z M 11.255127,13.816235 a 25.513393,25.513393 0 0 0 -6.250264,17.18603 25.513393,25.513393 0 0 0 25.997379,25.01191 25.513393,25.513393 0 0 0 0.382921,-0.0207 25.513393,25.513393 0 0 1 -25.321967,-24.99124 25.513393,25.513393 0 0 1 5.66632,-16.52147 c -0.155829,-0.22395 -0.313022,-0.44708 -0.474389,-0.66456 z"
       id="path6070" />
    <path
       style="display:inline;opacity:1;fill:#29ffa4;fill-opacity:1;fill-rule:evenodd;stroke:none;stroke-width:10;stroke-miterlimit:4;stroke-dasharray:none;stroke-dashoffset:0;stroke-opacity:1;paint-order:fill markers stroke"
       d="m 32.584056,4.9971347 a 25.513393,25.513393 0 0 0 -0.433565,0.0238 25.513393,25.513393 0 0 1 25.219134,24.9726403 l 5.3e-4,0.031 a 25.513393,25.513393 0 0 1 -5.50561,16.28325 c 0.1834,0.26966 0.3692,0.53514 0.56018,0.79478 a 25.513393,25.513393 0 0 0 6.17275,-17.07803 l -5.3e-4,-0.031 A 25.513393,25.513393 0 0 0 32.584056,4.9971347 Z M 48.613575,49.702415 a 25.513393,25.513393 0 0 1 -15.819712,6.28747 25.513393,25.513393 0 0 0 0.783415,0.0243 25.513393,25.513393 0 0 0 15.502927,-5.66839 c -0.1577,-0.21469 -0.31368,-0.42907 -0.46663,-0.64337 z"
       id="path6068" />
    <path
       id="path4679"
       d="M 31.59652,4.9971347 A 25.513393,25.513393 0 0 0 15.533936,11.126475 c 3.454616,4.79733 5.736982,9.58836 8.496639,23.93859 l 7.284826,-24.57937 0.451135,0.11162 0.02223,-0.11162 c 7.861179,1.46742 10.534349,4.71687 12.525849,13.20694 3.15251,13.38741 5.09705,18.65842 7.79436,22.62188 a 25.513393,25.513393 0 0 0 5.50095,-16.28997 l -5.3e-4,-0.031 A 25.513393,25.513393 0 0 0 31.59652,4.9971347 Z M 12.254549,14.474595 a 25.513393,25.513393 0 0 0 -5.662186,16.52767 25.513393,25.513393 0 0 0 25.997379,25.01191 25.513393,25.513393 0 0 0 16.268773,-6.304 c -3.38483,-4.74042 -5.64381,-9.58763 -8.370031,-23.76393 l -7.28431,24.57938 -0.451652,-0.11162 -0.02222,0.11162 c -7.861171,-1.46742 -10.534351,-4.71687 -12.52585,-13.20695 -3.212296,-13.64125 -5.171564,-18.85363 -7.949903,-22.84408 z m 22.52679,0.85214 -7.606255,23.40684 H 25.02638 c 0.8393,3.5098 2.013317,5.65789 4.711855,6.95152 l 7.605739,-23.40736 h 2.149221 c -0.839229,-3.50953 -2.013754,-5.65733 -4.711856,-6.951 z"
       style="display:inline;opacity:1;fill:#1b59a2;fill-opacity:1;fill-rule:evenodd;stroke:none;stroke-width:10;stroke-miterlimit:4;stroke-dasharray:none;stroke-dashoffset:0;stroke-opacity:1;paint-order:fill markers stroke" />
    <path
       style="display:inline;opacity:1;fill:#1b59a2;fill-opacity:1;fill-rule:evenodd;stroke:none;stroke-width:10;stroke-miterlimit:4;stroke-dasharray:none;stroke-dashoffset:0;stroke-opacity:1;paint-order:fill markers stroke"
       d="M 31.350966,4.9971347 A 25.513393,25.513393 0 0 0 15.288382,11.126475 c 3.454616,4.79733 5.736982,9.58836 8.496639,23.93859 l 7.284826,-24.57937 0.451135,0.11162 0.02223,-0.11162 c 7.861179,1.46742 10.534343,4.71687 12.525843,13.20694 3.15251,13.38741 5.09705,18.65842 7.79436,22.62188 a 25.513393,25.513393 0 0 0 5.50095,-16.28997 l -5.3e-4,-0.031 A 25.513393,25.513393 0 0 0 31.350966,4.9971347 Z M 12.008995,14.474595 a 25.513393,25.513393 0 0 0 -5.662186,16.52767 25.513393,25.513393 0 0 0 25.997379,25.01191 25.513393,25.513393 0 0 0 16.268767,-6.304 c -3.38483,-4.74042 -5.64381,-9.58763 -8.370025,-23.76393 l -7.28431,24.57938 -0.451652,-0.11162 -0.02222,0.11162 c -7.861171,-1.46742 -10.534351,-4.71687 -12.52585,-13.20695 -3.212296,-13.64125 -5.171564,-18.85363 -7.949903,-22.84408 z m 22.52679,0.85214 -7.606255,23.40684 h -2.148704 c 0.8393,3.5098 2.013317,5.65789 4.711855,6.95152 l 7.605739,-23.40736 h 2.149221 c -0.839229,-3.50953 -2.013754,-5.65733 -4.711856,-6.951 z"
       id="path4681" />
    <path
       style="display:inline;opacity:1;fill:#5294e2;fill-opacity:1;fill-rule:evenodd;stroke:none;stroke-width:10;stroke-miterlimit:4;stroke-dasharray:none;stroke-dashoffset:0;stroke-opacity:1;paint-order:fill markers stroke"
       d="M 31.067353,4.9971347 A 25.513393,25.513393 0 0 0 15.004769,11.126475 c 3.454616,4.79733 5.736982,9.58836 8.496639,23.93859 l 7.284826,-24.57937 0.451135,0.11162 0.02223,-0.11162 c 7.861179,1.46742 10.534346,4.71687 12.525846,13.20694 3.15251,13.38741 5.09705,18.65842 7.79436,22.62188 a 25.513393,25.513393 0 0 0 5.50095,-16.28997 l -5.3e-4,-0.031 A 25.513393,25.513393 0 0 0 31.067353,4.9971347 Z M 11.725382,14.474595 a 25.513393,25.513393 0 0 0 -5.662186,16.52767 25.513393,25.513393 0 0 0 25.997379,25.01191 25.513393,25.513393 0 0 0 16.26877,-6.304 c -3.38483,-4.74042 -5.64381,-9.58763 -8.370028,-23.76393 l -7.28431,24.57938 -0.451652,-0.11162 -0.02222,0.11162 c -7.861171,-1.46742 -10.534351,-4.71687 -12.52585,-13.20695 -3.212296,-13.64125 -5.171564,-18.85363 -7.949903,-22.84408 z m 22.52679,0.85214 -7.606255,23.40684 h -2.148704 c 0.8393,3.5098 2.013317,5.65789 4.711855,6.95152 l 7.605739,-23.40736 h 2.149221 c -0.839229,-3.50953 -2.013754,-5.65733 -4.711856,-6.951 z"
       id="path4648" />
  </g>
  <g
     transform="translate(-3.1131187,-3.9921436)"
     style="display:inline"
     id="g4631">
    <text
       xml:space="preserve"
       style="font-style:normal;font-variant:normal;font-weight:bold;font-stretch:normal;font-size:35.27777863px;line-height:125%;font-family:'Fira Sans';-inkscape-font-specification:'Fira Sans Bold';font-variant-ligatures:normal;font-variant-caps:normal;font-variant-numeric:normal;font-feature-settings:normal;text-align:start;letter-spacing:0px;word-spacing:0px;writing-mode:lr-tb;text-anchor:start;display:inline;fill:#2e323c;fill-opacity:1;stroke:none;stroke-width:0.26458332px;stroke-linecap:butt;stroke-linejoin:miter;stroke-opacity:1"
       x="61.539043"
       y="38.733902"
       id="text6160"><tspan
         id="tspan6158"
         x="61.539043"
         y="38.733902"
         style="font-style:normal;font-variant:normal;font-weight:bold;font-stretch:normal;font-size:35.27777863px;font-family:'Fira Sans';-inkscape-font-specification:'Fira Sans Bold';font-variant-ligatures:normal;font-variant-caps:normal;font-variant-numeric:normal;font-feature-settings:normal;text-align:start;writing-mode:lr-tb;text-anchor:start;fill:#2e323c;fill-opacity:1;stroke-width:0.26458332px">Gifcurr</tspan></text>
    <text
       xml:space="preserve"
       style="font-style:normal;font-variant:normal;font-weight:bold;font-stretch:normal;font-size:35.27777863px;line-height:125%;font-family:'Fira Sans';-inkscape-font-specification:'Fira Sans Bold';text-align:start;letter-spacing:0px;word-spacing:0px;writing-mode:lr-tb;text-anchor:start;display:inline;fill:#2e323c;fill-opacity:1;stroke:none;stroke-width:0.26458332px;stroke-linecap:butt;stroke-linejoin:miter;stroke-opacity:1"
       x="172.94928"
       y="-20.001196"
       id="text6166"
       transform="scale(1,-1)"><tspan
         id="tspan6164"
         x="172.94928"
         y="-20.001196"
         style="font-style:normal;font-variant:normal;font-weight:bold;font-stretch:normal;font-size:35.27777863px;font-family:'Fira Sans';-inkscape-font-specification:'Fira Sans Bold';fill:#2e323c;fill-opacity:1;stroke-width:0.26458332px">λ</tspan></text>
    <text
       id="text6170"
       y="38.733902"
       x="61.375141"
       style="font-style:normal;font-variant:normal;font-weight:bold;font-stretch:normal;font-size:35.27777863px;line-height:125%;font-family:'Fira Sans';-inkscape-font-specification:'Fira Sans Bold';font-variant-ligatures:normal;font-variant-caps:normal;font-variant-numeric:normal;font-feature-settings:normal;text-align:start;letter-spacing:0px;word-spacing:0px;writing-mode:lr-tb;text-anchor:start;display:inline;fill:#2e323c;fill-opacity:1;stroke:none;stroke-width:0.26458332px;stroke-linecap:butt;stroke-linejoin:miter;stroke-opacity:1"
       xml:space="preserve"><tspan
         style="font-style:normal;font-variant:normal;font-weight:bold;font-stretch:normal;font-size:35.27777863px;font-family:'Fira Sans';-inkscape-font-specification:'Fira Sans Bold';font-variant-ligatures:normal;font-variant-caps:normal;font-variant-numeric:normal;font-feature-settings:normal;text-align:start;writing-mode:lr-tb;text-anchor:start;fill:#2e323c;fill-opacity:1;stroke-width:0.26458332px"
         y="38.733902"
         x="61.375141"
         id="tspan6168">Gifcurr</tspan></text>
    <text
       transform="scale(1,-1)"
       id="text6156"
       y="-20.001196"
       x="173.11317"
       style="font-style:normal;font-variant:normal;font-weight:bold;font-stretch:normal;font-size:35.27777863px;line-height:125%;font-family:'Fira Sans';-inkscape-font-specification:'Fira Sans Bold';text-align:start;letter-spacing:0px;word-spacing:0px;writing-mode:lr-tb;text-anchor:start;display:inline;fill:#2e323c;fill-opacity:1;stroke:none;stroke-width:0.26458332px;stroke-linecap:butt;stroke-linejoin:miter;stroke-opacity:1"
       xml:space="preserve"><tspan
         style="font-style:normal;font-variant:normal;font-weight:bold;font-stretch:normal;font-size:35.27777863px;font-family:'Fira Sans';-inkscape-font-specification:'Fira Sans Bold';fill:#2e323c;fill-opacity:1;stroke-width:0.26458332px"
         y="-20.001196"
         x="173.11317"
         id="tspan6154">λ</tspan></text>
    <text
       xml:space="preserve"
       style="font-style:normal;font-variant:normal;font-weight:bold;font-stretch:normal;font-size:35.27777863px;line-height:125%;font-family:'Fira Sans';-inkscape-font-specification:'Fira Sans Bold';text-align:start;letter-spacing:0px;word-spacing:0px;writing-mode:lr-tb;text-anchor:start;display:inline;fill:#444a58;fill-opacity:1;stroke:none;stroke-width:0.26458332px;stroke-linecap:butt;stroke-linejoin:miter;stroke-opacity:1"
       x="172.80458"
       y="-20.001196"
       id="text6125"
       transform="scale(1,-1)"><tspan
         id="tspan6123"
         x="172.80458"
         y="-20.001196"
         style="font-style:normal;font-variant:normal;font-weight:bold;font-stretch:normal;font-size:35.27777863px;font-family:'Fira Sans';-inkscape-font-specification:'Fira Sans Bold';fill:#444a58;fill-opacity:1;stroke-width:0.26458332px">λ</tspan></text>
    <text
       id="text6129"
       y="38.733902"
       x="61.230457"
       style="font-style:normal;font-variant:normal;font-weight:bold;font-stretch:normal;font-size:35.27777863px;line-height:125%;font-family:'Fira Sans';-inkscape-font-specification:'Fira Sans Bold';font-variant-ligatures:normal;font-variant-caps:normal;font-variant-numeric:normal;font-feature-settings:normal;text-align:start;letter-spacing:0px;word-spacing:0px;writing-mode:lr-tb;text-anchor:start;display:inline;fill:#444a58;fill-opacity:1;stroke:none;stroke-width:0.26458332px;stroke-linecap:butt;stroke-linejoin:miter;stroke-opacity:1"
       xml:space="preserve"><tspan
         style="font-style:normal;font-variant:normal;font-weight:bold;font-stretch:normal;font-size:35.27777863px;font-family:'Fira Sans';-inkscape-font-specification:'Fira Sans Bold';font-variant-ligatures:normal;font-variant-caps:normal;font-variant-numeric:normal;font-feature-settings:normal;text-align:start;writing-mode:lr-tb;text-anchor:start;fill:#444a58;fill-opacity:1;stroke-width:0.26458332px"
         y="38.733902"
         x="61.230457"
         id="tspan6127">Gifcurr</tspan></text>
  </g>
  <g
     transform="translate(-3.1131187,-3.9921436)"
     id="g4644">
    <path
       style="opacity:1;vector-effect:none;fill:none;fill-opacity:1;fill-rule:evenodd;stroke:#000000;stroke-width:1;stroke-linecap:butt;stroke-linejoin:round;stroke-miterlimit:4;stroke-dasharray:none;stroke-dashoffset:1107.35998535;stroke-opacity:0"
       d="M 23.810702,55.129827 C 17.778485,53.503104 9.0148866,48.566654 5.6981798,36.315722"
       id="path4614" />
    <text
       xml:space="preserve"
       style="font-style:normal;font-variant:normal;font-weight:normal;font-stretch:normal;font-size:2.82222223px;line-height:125%;font-family:Ubuntu;-inkscape-font-specification:Ubuntu;text-align:start;letter-spacing:0px;word-spacing:0px;writing-mode:lr-tb;text-anchor:start;fill:#e8e8e8;fill-opacity:1;stroke:none;stroke-width:0.26458335px;stroke-linecap:butt;stroke-linejoin:miter;stroke-opacity:1"
       id="text4587"
       transform="translate(-0.40960069,0.2054888)"><textPath
         xlink:href="#path4614"
         id="textPath4616"><tspan
   dy="0 0 0 0 0 0 0 0 0 0 0 0 0 0 0 0 0 0 0 0"
   style="font-style:normal;font-variant:normal;font-weight:normal;font-stretch:normal;font-size:2.82222223px;font-family:Ubuntu;-inkscape-font-specification:Ubuntu;fill:#e8e8e8;fill-opacity:1;stroke-width:0.26458335px"
   id="tspan4585">© 2018 David Lettier</tspan></textPath></text>
  </g>
</svg>
