<?xml version="1.0" encoding="UTF-8" standalone="no"?>
<svg
   xmlns:dc="http://purl.org/dc/elements/1.1/"
   xmlns:cc="http://creativecommons.org/ns#"
   xmlns:rdf="http://www.w3.org/1999/02/22-rdf-syntax-ns#"
   xmlns:svg="http://www.w3.org/2000/svg"
   xmlns="http://www.w3.org/2000/svg"
   id="svg8"
   version="1.1"
   viewBox="0 0 25.4 25.4"
   height="96"
   width="96">
  <defs
     id="defs2">
    <filter
       height="1.272529"
       y="-0.1362645"
       width="1.0769389"
       x="-0.038469434"
       id="filter1015"
       style="color-interpolation-filters:sRGB">
      <feGaussianBlur
         id="feGaussianBlur1017"
         stdDeviation="2.0172845" />
    </filter>
    <filter
       height="1.1199611"
       y="-0.059980609"
       width="1.1200387"
       x="-0.060019407"
       id="filter1023"
       style="color-interpolation-filters:sRGB">
      <feGaussianBlur
         id="feGaussianBlur1025"
         stdDeviation="1.2333967" />
    </filter>
  </defs>
  <metadata
     id="metadata5">
    <rdf:RDF>
      <cc:Work
         rdf:about="">
        <dc:format>image/svg+xml</dc:format>
        <dc:type
           rdf:resource="http://purl.org/dc/dcmitype/StillImage" />
        <dc:title />
        <dc:rights>
          <cc:Agent>
            <dc:title>(C) 2018 David Lettier</dc:title>
          </cc:Agent>
        </dc:rights>
      </cc:Work>
    </rdf:RDF>
  </metadata>
  <g
     transform="translate(-0.29107212,-26.564588)"
     style="display:inline"
     id="g1094">
    <path
       style="opacity:1;fill:#ffffff;fill-opacity:1;fill-rule:nonzero;stroke:none;stroke-width:0.33525831;stroke-linecap:butt;stroke-linejoin:miter;stroke-miterlimit:4;stroke-dasharray:none;stroke-dashoffset:0;stroke-opacity:1;paint-order:fill markers stroke"
       id="path827"
       d="M 16.375253,49.156239 A 10.463589,10.463589 0 0 1 3.0975771,42.650721 10.463589,10.463589 0 0 1 9.5815634,29.362518 10.463589,10.463589 0 0 1 22.88026,35.824956 10.463589,10.463589 0 0 1 16.439387,49.13411" />
    <path
       id="path905"
       d="m 27.11518,-0.334454 c -2.47074,0.07979 -4.91547,0.530445 -7.25227,1.336869 -3.14869,1.09666 -6.04243,2.820143 -8.50646,5.066358 2.36875,4.536781 4.04964,10.145363 6.02083,21.072615 l 6.57014,-25.262025 5.78673,1.377696 c 8.07933,1.593654 11.61325,4.95582 13.79553,14.270445 2.24462,9.473578 3.85549,15.164987 5.61517,19.306314 C 52.8219,30.605405 53.58074,23.077202 51.22069,16.240245 47.68069,6.033803 37.91249,-0.682714 27.11518,-0.334454 Z M 44.2237,42.810198 C 41.73679,38.197396 40.01074,32.58778 37.9786,21.322621 L 31.40846,46.584646 25.62173,45.206952 C 17.54241,43.613295 14.00848,40.251129 11.82619,30.936505 9.68494,21.899164 8.12149,16.298699 6.45443,12.206381 2.98154,18.339372 2.29734,25.664833 4.57444,32.33487 8.99288,45.208233 23.00156,52.071985 35.88209,47.674501 l 0.15141,-0.05219 c 3.016,-1.058373 5.79761,-2.692696 8.1902,-4.812109 z M 29.47111,8.603502 21.73877,32.69247 h -2.77554 c 1.26286,4.080013 2.82537,6.0745 6.92154,7.168039 l 7.73234,-24.088971 h 2.77554 C 35.1298,11.691526 33.56728,9.697038 29.47111,8.603502 Z"
       style="display:inline;opacity:1;fill:#13082a;fill-opacity:0.19607843;fill-rule:nonzero;stroke:none;stroke-width:0.58234793;stroke-linecap:butt;stroke-linejoin:miter;stroke-miterlimit:4;stroke-dasharray:none;stroke-dashoffset:0;stroke-opacity:1;paint-order:fill markers stroke;filter:url(#filter1023)"
       transform="matrix(0.45993222,0,0,0.45993222,0.15719867,28.064398)" />
    <g
       style="display:inline;fill:#491ea4;fill-opacity:1"
       id="g903"
       transform="matrix(0.45993222,0,0,0.45993222,-57.495033,61.62316)">
      <path
         style="opacity:1;vector-effect:none;fill:#491ea4;fill-opacity:1;fill-rule:evenodd;stroke:none;stroke-width:1.32291663;stroke-linecap:butt;stroke-linejoin:round;stroke-miterlimit:4;stroke-dasharray:none;stroke-dashoffset:1107.35998535;stroke-opacity:1"
         d="m 131.80384,-60.7582 c 1.64062,0.926881 1.64062,0.926881 1.64062,0.926881 l -0.73839,1.519334 z"
         id="path884" />
      <path
         style="opacity:1;fill:#491ea4;fill-opacity:1;fill-rule:nonzero;stroke:none;stroke-width:0.53782058;stroke-linecap:butt;stroke-linejoin:miter;stroke-miterlimit:4;stroke-dasharray:none;stroke-dashoffset:0;stroke-opacity:1;paint-order:fill markers stroke"
         d="m 152.52545,-71.413259 c -2.28182,0.07369 -4.53962,0.489887 -6.69774,1.23465 -2.90794,1.012807 -5.58042,2.60451 -7.85604,4.678975 2.18762,4.189891 3.73999,9.369631 5.56046,19.461365 l 6.06777,-23.330445 5.34427,1.272355 c 7.46157,1.4718 10.72528,4.576889 12.74071,13.179301 2.07299,8.749211 3.56068,14.005444 5.18581,17.830118 3.3959,-5.752178 4.09672,-12.704761 1.91712,-19.018951 -3.26933,-9.426039 -12.29062,-15.628998 -22.26236,-15.307368 z m 15.80037,39.845734 c -2.29675,-4.260099 -3.89082,-9.440793 -5.76758,-19.844598 l -6.06778,23.330445 -5.34426,-1.272354 c -7.46157,-1.471803 -10.72529,-4.576891 -12.74071,-13.179302 -1.97752,-8.346329 -3.42143,-13.518573 -4.96103,-17.297985 -3.20735,5.664052 -3.83923,12.429395 -1.73624,18.589428 4.0806,11.889042 17.01815,18.227979 28.91381,14.166735 l 0.13984,-0.0482 c 2.78539,-0.977447 5.35431,-2.486807 7.56395,-4.444166 z m -13.62457,-31.59119 -7.14112,22.247082 h -2.56332 c 1.1663,3.768048 2.60934,5.610032 6.39232,6.619957 l 7.1411,-22.247084 h 2.56332 c -1.16629,-3.768047 -2.60933,-5.610032 -6.3923,-6.619955 z"
         id="path878" />
      <path
         style="opacity:1;vector-effect:none;fill:#491ea4;fill-opacity:1;fill-rule:evenodd;stroke:none;stroke-width:1.32291663;stroke-linecap:butt;stroke-linejoin:round;stroke-miterlimit:4;stroke-dasharray:none;stroke-dashoffset:1107.35998535;stroke-opacity:1"
         d="m 142.72669,-45.823194 0.80544,-0.215075 -0.32748,-2.010777 z"
         id="path886" />
      <path
         style="opacity:1;vector-effect:none;fill:#491ea4;fill-opacity:1;fill-rule:evenodd;stroke:none;stroke-width:1.32291663;stroke-linecap:butt;stroke-linejoin:round;stroke-miterlimit:4;stroke-dasharray:none;stroke-dashoffset:1107.35998535;stroke-opacity:1"
         d="m 144.31264,-40.272112 0.68417,-0.639521 0.40617,0.860469 z"
         id="path888" />
      <path
         style="opacity:1;vector-effect:none;fill:#491ea4;fill-opacity:1;fill-rule:evenodd;stroke:none;stroke-width:1.32291663;stroke-linecap:butt;stroke-linejoin:round;stroke-miterlimit:4;stroke-dasharray:none;stroke-dashoffset:1107.35998535;stroke-opacity:1"
         d="m 161.09355,-56.53876 0.64851,-0.654283 -0.94262,-0.08335 z"
         id="path890" />
      <path
         style="opacity:1;vector-effect:none;fill:#491ea4;fill-opacity:1;fill-rule:evenodd;stroke:none;stroke-width:1.32291663;stroke-linecap:butt;stroke-linejoin:round;stroke-miterlimit:4;stroke-dasharray:none;stroke-dashoffset:1107.35998535;stroke-opacity:1"
         d="m 162.55824,-51.412123 0.76977,-0.229837 -0.46564,2.228656 z"
         id="path892" />
      <path
         style="opacity:1;vector-effect:none;fill:#491ea4;fill-opacity:1;fill-rule:evenodd;stroke:none;stroke-width:1.32291663;stroke-linecap:butt;stroke-linejoin:round;stroke-miterlimit:4;stroke-dasharray:none;stroke-dashoffset:1107.35998535;stroke-opacity:1"
         d="m 172.87069,-37.086941 1.62357,0.956177 -0.93444,-2.710169 z"
         id="path894" />
    </g>
    <path
       style="display:inline;opacity:1;fill:#5d22da;fill-opacity:1;fill-rule:nonzero;stroke:none;stroke-width:0.26784056;stroke-linecap:butt;stroke-linejoin:miter;stroke-miterlimit:4;stroke-dasharray:none;stroke-dashoffset:0;stroke-opacity:1;paint-order:fill markers stroke"
       d="m 12.628343,27.910573 c -1.136372,0.0367 -2.260783,0.243968 -3.335552,0.614868 -1.448184,0.504389 -2.7791083,1.297075 -3.9123951,2.330182 1.0894645,2.086612 1.86256,4.666179 2.7691738,9.691974 l 3.0218193,-11.61882 2.661503,0.633647 c 3.715945,0.732974 5.341308,2.279342 6.345009,6.563438 1.032373,4.357204 1.773264,6.974866 2.582597,8.879596 1.691194,-2.864648 2.040209,-6.327111 0.954746,-9.471647 -1.62816,-4.694272 -6.12087,-7.783415 -11.086901,-7.623238 z m 7.86876,19.843615 c -1.14381,-2.121576 -1.937675,-4.70162 -2.872323,-9.882829 L 14.602962,49.490178 11.941458,48.856533 C 8.2255182,48.123558 6.6001499,46.577189 5.5964445,42.293094 4.6116146,38.136529 3.8925336,35.560695 3.125799,33.678506 c -1.597294,2.820761 -1.9119797,6.189976 -0.864668,9.257741 2.032183,5.920874 8.475226,9.077735 14.399397,7.05519 l 0.06964,-0.02401 c 1.387155,-0.486779 2.666508,-1.238457 3.766937,-2.213243 z M 13.711911,32.021426 10.155559,43.100718 H 8.8789992 c 0.5808299,1.87653 1.2994778,2.793859 3.1834388,3.296812 l 3.556353,-11.079294 h 1.27656 c -0.580826,-1.876528 -1.299479,-2.793857 -3.18344,-3.29681 z"
       id="path851" />
  </g>
</svg>
